<?xml version="1.0" encoding="UTF-8" standalone="no"?>
<!-- Created with Inkscape (http://www.inkscape.org/) -->

<svg
   width="1920"
   height="1080"
   viewBox="0 0 507.99999 285.75"
   version="1.1"
   id="svg5"
   xml:space="preserve"
   inkscape:version="1.2.2 (732a01da63, 2022-12-09)"
   sodipodi:docname="1.svg"
   xmlns:inkscape="http://www.inkscape.org/namespaces/inkscape"
   xmlns:sodipodi="http://sodipodi.sourceforge.net/DTD/sodipodi-0.dtd"
   xmlns="http://www.w3.org/2000/svg"
   xmlns:svg="http://www.w3.org/2000/svg"><sodipodi:namedview
     id="namedview7"
     pagecolor="#ffffff"
     bordercolor="#000000"
     borderopacity="0.25"
     inkscape:showpageshadow="2"
     inkscape:pageopacity="0.0"
     inkscape:pagecheckerboard="0"
     inkscape:deskcolor="#d1d1d1"
     inkscape:document-units="mm"
     showgrid="false"
     inkscape:zoom="0.37282197"
     inkscape:cx="926.71577"
     inkscape:cy="568.63602"
     inkscape:window-width="1920"
     inkscape:window-height="1017"
     inkscape:window-x="-8"
     inkscape:window-y="-8"
     inkscape:window-maximized="1"
     inkscape:current-layer="layer1" /><defs
     id="defs2" /><g
     inkscape:label="Слой 1"
     inkscape:groupmode="layer"
     id="layer1"><path
       d="m 456.37887,186.80366 c 0,-1.52714 -0.1026,-1.80084 -0.81876,-2.18411 -0.62177,-0.33276 -0.81875,-0.70064 -0.81875,-1.5291 v -1.09091 h 4.09378 4.09377 v 0.97495 c 0,0.67856 -0.24891,1.13805 -0.81875,1.51143 -0.70557,0.4623 -0.81876,0.78028 -0.81876,2.30006 v 1.7636 h -2.45626 -2.45627 z m -1.63751,-7.41659 c 0,-0.67856 0.24891,-1.13805 0.81875,-1.51143 l 0.81876,-0.53646 v -5.70414 c 0,-4.39233 0.11585,-5.98141 0.50374,-6.90977 1.08448,-2.59551 2.96271,-3.68586 6.34923,-3.68586 2.04569,0 2.33605,-0.0798 2.68209,-0.73688 0.50788,-0.96443 0.88885,-1.18944 1.84183,-1.08783 0.78263,0.0834 0.78587,0.10049 0.7879,4.14739 l 0.002,4.06361 -0.97766,0.10042 c -0.79572,0.0817 -1.0877,-0.0859 -1.56899,-0.90063 -0.51525,-0.87237 -0.77441,-1.00106 -2.01595,-1.00106 -2.71717,0 -2.69162,-0.0588 -2.69162,6.1964 v 5.51835 l 0.81876,0.53646 c 0.56984,0.37338 0.81875,0.83287 0.81875,1.51143 v 0.97496 h -4.09377 -4.09378 z m 15.3926,-15.8532 c 0,-3.84234 0.0361,-4.06502 0.68659,-4.23513 0.93931,-0.24563 1.43747,-0.005 1.94272,0.93928 0.42149,0.78757 0.50286,0.80139 4.71897,0.80139 h 4.29008 l 0.53972,-0.8895 c 0.3917,-0.64558 0.81666,-0.89615 1.54961,-0.91373 l 1.0099,-0.0242 v 4.18874 4.18874 h -0.96021 c -0.69309,2e-5 -1.15482,-0.2733 -1.65981,-0.98249 l -0.69961,-0.98251 h -4.04917 -4.04917 l -0.69961,0.98251 c -0.50499,0.70919 -0.96672,0.98251 -1.65981,0.98251 h -0.9602 z"
       style="fill:#f4f4f4;fill-opacity:1;stroke-width:0.327502"
       id="path544" /></g></svg>
