<?xml version="1.0" encoding="UTF-8" standalone="no"?>
<!-- Created with Inkscape (http://www.inkscape.org/) -->

<svg
   width="1920"
   height="1080"
   viewBox="0 0 507.99999 285.75"
   version="1.1"
   id="svg5"
   xml:space="preserve"
   inkscape:version="1.2.2 (732a01da63, 2022-12-09)"
   sodipodi:docname="10.svg"
   xmlns:inkscape="http://www.inkscape.org/namespaces/inkscape"
   xmlns:sodipodi="http://sodipodi.sourceforge.net/DTD/sodipodi-0.dtd"
   xmlns="http://www.w3.org/2000/svg"
   xmlns:svg="http://www.w3.org/2000/svg"><sodipodi:namedview
     id="namedview7"
     pagecolor="#ffffff"
     bordercolor="#000000"
     borderopacity="0.25"
     inkscape:showpageshadow="2"
     inkscape:pageopacity="0.0"
     inkscape:pagecheckerboard="0"
     inkscape:deskcolor="#d1d1d1"
     inkscape:document-units="mm"
     showgrid="false"
     inkscape:zoom="0.52724989"
     inkscape:cx="1171.1714"
     inkscape:cy="595.54304"
     inkscape:window-width="1920"
     inkscape:window-height="1017"
     inkscape:window-x="-8"
     inkscape:window-y="-8"
     inkscape:window-maximized="1"
     inkscape:current-layer="layer1" /><defs
     id="defs2" /><g
     inkscape:label="Слой 1"
     inkscape:groupmode="layer"
     id="layer1"><path
       d="m 196.74402,259.89291 c -0.55092,-0.55092 -0.58403,-0.69522 -0.41385,-1.8033 0.32646,-2.12569 0.25085,-2.43323 -0.88671,-3.60661 -1.26981,-1.30979 -1.47784,-1.88595 -1.00858,-2.79339 0.40603,-0.7852 0.63096,-0.8966 2.24169,-1.11027 1.42945,-0.18962 1.91964,-0.55947 2.73644,-2.06457 1.20424,-2.21902 2.61512,-2.22066 3.81322,-0.004 0.82337,1.52305 1.34651,1.91293 2.81255,2.0961 1.40314,0.17531 2.38293,2.59405 1.149,3.87657 -1.13041,1.17492 -1.21354,1.51135 -0.89294,3.61385 0.16967,1.11275 0.13645,1.25999 -0.40685,1.80329 -0.74515,0.74514 -1.48374,0.74763 -2.93959,0.01 -0.63136,-0.31994 -1.36432,-0.58171 -1.62877,-0.58171 -0.26447,0 -0.99742,0.26177 -1.62879,0.58171 -1.46013,0.7399 -2.19406,0.73564 -2.94682,-0.0171 z m 2.24877,-0.56459 c 0.25595,-0.25595 0.46537,-0.588 0.46537,-0.73789 0,-0.47607 -0.75069,-1.12357 -1.30263,-1.12357 -0.47841,0 -1.25689,0.75265 -1.25689,1.21519 0,0.3155 0.91654,1.11164 1.27976,1.11164 0.19197,0 0.55844,-0.20942 0.81439,-0.46537 z m 6.14949,0.0997 c 0.45722,-0.45722 0.47317,-1.34959 0.0307,-1.71682 -0.58185,-0.4829 -1.60781,-0.20377 -1.85552,0.50481 -0.40385,1.1552 0.9695,2.06735 1.82483,1.21201 z m -3.10931,-4.06352 c 0.70651,-0.37811 0.61942,-1.78609 -0.13164,-2.1283 -0.94391,-0.43007 -1.74512,0.0625 -1.74512,1.07286 0,1.12084 0.85554,1.60197 1.87676,1.05544 z m 4.9104,-1.67876 c 0.65421,-0.52712 0.68813,-1.09697 0.1003,-1.6848 -0.37424,-0.37424 -0.71526,-0.51147 -1.0521,-0.42338 -1.05864,0.27684 -1.17675,1.76164 -0.17234,2.16666 0.6822,0.2751 0.71205,0.27355 1.12414,-0.0585 z m -9.85858,-0.22105 c 0.49631,-0.49632 0.33799,-1.56545 -0.27306,-1.84386 -1.05968,-0.48283 -2.09608,0.62215 -1.54658,1.64892 0.28534,0.53315 1.36569,0.64889 1.81964,0.19494 z m 5.0556,-3.68344 c 0.61275,-0.67708 0.23437,-1.70931 -0.66461,-1.81307 -1.20222,-0.13875 -1.75236,0.95622 -0.93448,1.85997 0.50298,0.55579 1.06868,0.5392 1.59909,-0.0469 z"
       style="fill:#f4f4f4;stroke-width:0.232683;fill-opacity:1"
       id="path19076" /></g></svg>
