<?xml version="1.0" encoding="UTF-8" standalone="no"?>
<!-- Created with Inkscape (http://www.inkscape.org/) -->

<svg
   width="1920"
   height="1080"
   viewBox="0 0 507.99999 285.75"
   version="1.1"
   id="svg5"
   xml:space="preserve"
   inkscape:version="1.2.2 (732a01da63, 2022-12-09)"
   sodipodi:docname="11.svg"
   xmlns:inkscape="http://www.inkscape.org/namespaces/inkscape"
   xmlns:sodipodi="http://sodipodi.sourceforge.net/DTD/sodipodi-0.dtd"
   xmlns="http://www.w3.org/2000/svg"
   xmlns:svg="http://www.w3.org/2000/svg"><sodipodi:namedview
     id="namedview7"
     pagecolor="#ffffff"
     bordercolor="#000000"
     borderopacity="0.25"
     inkscape:showpageshadow="2"
     inkscape:pageopacity="0.0"
     inkscape:pagecheckerboard="0"
     inkscape:deskcolor="#d1d1d1"
     inkscape:document-units="mm"
     showgrid="false"
     inkscape:zoom="0.52724989"
     inkscape:cx="1171.1714"
     inkscape:cy="595.54304"
     inkscape:window-width="1920"
     inkscape:window-height="1017"
     inkscape:window-x="-8"
     inkscape:window-y="-8"
     inkscape:window-maximized="1"
     inkscape:current-layer="layer1" /><defs
     id="defs2" /><g
     inkscape:label="Слой 1"
     inkscape:groupmode="layer"
     id="layer1"><path
       d="m 220.52296,80.627089 c -2.12305,-0.43542 -3.98143,-1.89616 -5.0658,-3.98183 -0.81247,-1.5627 -0.83096,-4.87597 -0.0356,-6.37693 0.70323,-1.32711 2.16887,-2.73216 3.56804,-3.42054 1.76642,-0.86907 4.44479,-0.78593 6.37019,0.19774 5.33509,2.72564 5.18072,10.47885 -0.25845,12.98115 -1.50097,0.69052 -3.11012,0.90154 -4.57838,0.60041 z m 4.25878,-2.6045 c 0.38564,-0.26159 0.31712,-0.40045 -0.68078,-1.37982 -0.61026,-0.59893 -1.15864,-1.03983 -1.21861,-0.97978 -0.0939,0.094 -0.23259,2.53243 -0.17214,3.02733 0.0254,0.20793 1.46444,-0.25592 2.07153,-0.66773 z m -3.54702,-0.87841 c 0,-0.82321 -0.0628,-1.49676 -0.13958,-1.49676 -0.21715,0 -2.35501,1.83133 -2.35501,2.01734 0,0.23736 1.54041,0.96376 2.05804,0.97049 0.36789,0.005 0.43655,-0.22973 0.43655,-1.49107 z m -2.44274,-1.42265 c 1.34088,-1.30933 1.24918,-1.57086 -0.55076,-1.57086 -0.82322,0 -1.49675,0.10999 -1.49675,0.24441 0,0.38948 0.78725,2.25018 0.95203,2.25018 0.0822,0 0.57519,-0.41568 1.09548,-0.92373 z m 8.02715,0.0753 c 0.68931,-1.45264 0.57708,-1.64615 -0.9547,-1.64615 -0.74651,0 -1.43294,0.12239 -1.52539,0.27198 -0.1569,0.25386 1.53234,2.22261 1.90707,2.22261 0.0937,0 0.35157,-0.3818 0.57302,-0.84844 z m -3.91094,-1.27403 c 0.69578,-0.48735 0.60156,-1.53127 -0.19224,-2.13004 -0.52863,-0.39874 -0.66207,-0.40762 -1.28502,-0.0855 -0.9181,0.47477 -0.99973,1.86972 -0.13384,2.28733 0.77152,0.37209 0.99134,0.36229 1.6111,-0.0718 z m -4.27238,-1.86887 c 0.60618,0 1.10216,-0.11661 1.10216,-0.25912 0,-0.14252 -0.43544,-0.72594 -0.96766,-1.2965 l -0.96766,-1.03739 -0.52909,1.03711 c -0.64,1.25449 -0.69254,1.92146 -0.1345,1.70732 0.21702,-0.0833 0.89056,-0.15142 1.49675,-0.15142 z m 8.58591,-0.26185 c 0,-0.59109 -0.66939,-1.98328 -0.95361,-1.98328 -0.39044,0 -2.09147,1.95986 -1.92908,2.22261 0.0924,0.14959 0.77888,0.27198 1.52539,0.27198 1.20196,0 1.3573,-0.0585 1.3573,-0.51131 z m -2.01916,-3.03708 c 0.0259,-0.19889 -1.03003,-0.78042 -1.90981,-1.05181 -0.53822,-0.16603 -0.56128,-0.11265 -0.56128,1.29885 0,0.80959 0.0734,1.54542 0.16319,1.63518 0.16483,0.16483 2.26437,-1.54746 2.3079,-1.88222 z m -3.8698,1.40758 c 0.28372,-0.73935 0.16868,-2.59921 -0.16041,-2.59343 -0.1715,0.003 -0.81698,0.23545 -1.43439,0.51652 l -1.12256,0.51104 1.12256,0.97279 c 1.26982,1.10039 1.38385,1.14279 1.5948,0.59308 z"
       style="fill:#f4f4f4;stroke-width:0.249459;fill-opacity:1"
       id="path19835" /></g></svg>
