<?xml version="1.0" encoding="UTF-8" standalone="no"?>
<!-- Created with Inkscape (http://www.inkscape.org/) -->

<svg
   width="1920"
   height="1080"
   viewBox="0 0 507.99999 285.75"
   version="1.1"
   id="svg5"
   xml:space="preserve"
   inkscape:version="1.2.2 (732a01da63, 2022-12-09)"
   sodipodi:docname="2.svg"
   xmlns:inkscape="http://www.inkscape.org/namespaces/inkscape"
   xmlns:sodipodi="http://sodipodi.sourceforge.net/DTD/sodipodi-0.dtd"
   xmlns="http://www.w3.org/2000/svg"
   xmlns:svg="http://www.w3.org/2000/svg"><sodipodi:namedview
     id="namedview7"
     pagecolor="#ffffff"
     bordercolor="#000000"
     borderopacity="0.25"
     inkscape:showpageshadow="2"
     inkscape:pageopacity="0.0"
     inkscape:pagecheckerboard="0"
     inkscape:deskcolor="#d1d1d1"
     inkscape:document-units="mm"
     showgrid="false"
     inkscape:zoom="0.37282198"
     inkscape:cx="964.26718"
     inkscape:cy="598.1407"
     inkscape:window-width="1920"
     inkscape:window-height="1017"
     inkscape:window-x="-8"
     inkscape:window-y="-8"
     inkscape:window-maximized="1"
     inkscape:current-layer="layer1" /><defs
     id="defs2" /><g
     inkscape:label="Слой 1"
     inkscape:groupmode="layer"
     id="layer1"><path
       d="m 337.37118,210.28816 c -3.40398,-0.82828 -6.54184,-3.52151 -7.73113,-6.6356 -1.46862,-3.84554 -0.16392,-9.21324 2.87082,-11.81087 5.23426,-4.48033 12.93392,-3.06869 16.50572,3.02613 1.26813,2.16391 1.57034,5.80914 0.69907,8.4323 -1.60494,4.83202 -7.49717,8.16754 -12.34448,6.98804 z m 6.04764,-3.71775 c 0.81105,-0.45161 1.53558,-1.00885 1.61008,-1.2383 0.0784,-0.24153 -1.06136,-0.8196 -2.70678,-1.37282 l -2.84224,-0.95562 -2.66023,0.97024 c -1.46313,0.53363 -2.60316,1.14141 -2.53343,1.35062 0.21651,0.64951 1.93596,1.76015 3.22663,2.08415 1.78673,0.44852 4.21369,0.10404 5.90597,-0.83827 z m -9.01197,-6.20091 c 0.98137,-0.85199 1.9687,-1.78564 2.19409,-2.07474 0.49807,-0.63889 1.39786,-5.45256 1.07885,-5.77158 -0.12526,-0.12526 -0.95741,0.12675 -1.84922,0.56003 -1.86428,0.90574 -3.36825,2.92921 -3.88431,5.22601 -0.35117,1.56294 -0.12903,3.60938 0.39182,3.60938 0.15646,0 1.0874,-0.69709 2.06877,-1.5491 z m 6.14508,1.12571 c 1.30551,-0.59483 1.30845,-2.52767 0.006,-3.38164 -0.87117,-0.5708 -0.98165,-0.5645 -1.92875,0.10984 -1.18185,0.84157 -1.30032,2.4237 -0.23955,3.19935 0.82518,0.60338 0.98597,0.60877 2.16315,0.0724 z m 6.7665,-1.60128 c 0,-2.19518 -0.62012,-3.75912 -2.13942,-5.39568 -0.99262,-1.06925 -2.61153,-2.0652 -3.35693,-2.0652 -0.47301,0 -0.17676,3.41999 0.44037,5.08387 0.38224,1.03056 3.87499,4.36077 4.59995,4.38589 0.31193,0.0111 0.45603,-0.62393 0.45603,-2.00888 z"
       style="fill:#f4f4f4;fill-opacity:1;stroke-width:0.364829"
       id="path572" /></g></svg>
