<?xml version="1.0" encoding="UTF-8" standalone="no"?>
<!-- Created with Inkscape (http://www.inkscape.org/) -->

<svg
   width="1920"
   height="1080"
   viewBox="0 0 507.99999 285.75"
   version="1.1"
   id="svg5"
   xml:space="preserve"
   inkscape:version="1.2.2 (732a01da63, 2022-12-09)"
   sodipodi:docname="3.svg"
   xmlns:inkscape="http://www.inkscape.org/namespaces/inkscape"
   xmlns:sodipodi="http://sodipodi.sourceforge.net/DTD/sodipodi-0.dtd"
   xmlns="http://www.w3.org/2000/svg"
   xmlns:svg="http://www.w3.org/2000/svg"><sodipodi:namedview
     id="namedview7"
     pagecolor="#ffffff"
     bordercolor="#000000"
     borderopacity="0.25"
     inkscape:showpageshadow="2"
     inkscape:pageopacity="0.0"
     inkscape:pagecheckerboard="0"
     inkscape:deskcolor="#d1d1d1"
     inkscape:document-units="mm"
     showgrid="false"
     inkscape:zoom="0.52724989"
     inkscape:cx="1171.1714"
     inkscape:cy="595.54304"
     inkscape:window-width="1920"
     inkscape:window-height="1017"
     inkscape:window-x="-8"
     inkscape:window-y="-8"
     inkscape:window-maximized="1"
     inkscape:current-layer="layer1" /><defs
     id="defs2" /><g
     inkscape:label="Слой 1"
     inkscape:groupmode="layer"
     id="layer1"><path
       d="m 302.35321,81.125919 c -0.42712,-0.65185 -0.8437,-0.821 -2.21819,-0.90063 l -1.69232,-0.0981 -0.0962,-2.37439 -0.0962,-2.37439 h 1.77794 c 1.53508,0 1.85123,-0.11185 2.31442,-0.81876 0.38858,-0.59305 0.8278,-0.81892 1.5933,-0.81935 l 1.05683,-6.6e-4 -0.10059,4.09438 -0.1006,4.09437 h -0.95624 c -0.65345,0 -1.12275,-0.25413 -1.4821,-0.80258 z m 4.11328,-3.2912 v -4.09377 h 0.97495 c 0.67856,0 1.13805,0.2489 1.51143,0.81875 0.51523,0.78634 0.67112,0.81876 3.93757,0.81876 h 3.40111 v -6.89381 c 0,-7.68733 -0.17431,-8.48048 -2.00393,-9.11829 -0.57273,-0.19965 -1.82549,-0.36301 -2.78392,-0.36301 -1.55645,0 -1.82017,0.10495 -2.46898,0.98251 -0.50757,0.68652 -1.00383,0.98251 -1.64732,0.98251 h -0.92091 v -4.20488 -4.20487 l 0.99011,0.0589 c 0.87998,0.0524 1.91844,0.88182 1.94699,1.55518 0.006,0.13509 1.13548,0.24563 2.51056,0.24563 3.1409,0 4.68496,0.45852 6.35348,1.88671 2.37443,2.03242 2.4256,2.24917 2.60895,11.04962 l 0.16375,7.86004 3.34195,0.0932 c 3.26179,0.0909 3.35499,0.0733 3.88581,-0.73688 0.4048,-0.6178 0.82733,-0.83004 1.65246,-0.83004 h 1.10859 v 4.09377 4.09378 h -1.10859 c -0.8211,0 -1.24771,-0.21233 -1.64506,-0.81876 l -0.53647,-0.81875 h -9.12484 -9.12484 l -0.53647,0.81875 c -0.37338,0.56985 -0.83287,0.81876 -1.51143,0.81876 h -0.97495 z"
       style="fill:#f4f4f4;stroke-width:0.327502;fill-opacity:1"
       id="path600" /></g></svg>
