<?xml version="1.0" encoding="UTF-8" standalone="no"?>
<!-- Created with Inkscape (http://www.inkscape.org/) -->

<svg
   width="1920"
   height="1080"
   viewBox="0 0 507.99999 285.75"
   version="1.1"
   id="svg5"
   xml:space="preserve"
   inkscape:version="1.2.2 (732a01da63, 2022-12-09)"
   sodipodi:docname="4.svg"
   xmlns:inkscape="http://www.inkscape.org/namespaces/inkscape"
   xmlns:sodipodi="http://sodipodi.sourceforge.net/DTD/sodipodi-0.dtd"
   xmlns="http://www.w3.org/2000/svg"
   xmlns:svg="http://www.w3.org/2000/svg"><sodipodi:namedview
     id="namedview7"
     pagecolor="#ffffff"
     bordercolor="#000000"
     borderopacity="0.25"
     inkscape:showpageshadow="2"
     inkscape:pageopacity="0.0"
     inkscape:pagecheckerboard="0"
     inkscape:deskcolor="#d1d1d1"
     inkscape:document-units="mm"
     showgrid="false"
     inkscape:zoom="0.52724989"
     inkscape:cx="1171.1714"
     inkscape:cy="595.54304"
     inkscape:window-width="1920"
     inkscape:window-height="1017"
     inkscape:window-x="-8"
     inkscape:window-y="-8"
     inkscape:window-maximized="1"
     inkscape:current-layer="layer1" /><defs
     id="defs2" /><g
     inkscape:label="Слой 1"
     inkscape:groupmode="layer"
     id="layer1"><path
       d="m 69.3475,220.6677 c -0.50726,-0.77417 -0.69937,-0.81885 -3.5282,-0.82058 -3.51649,-0.002 -5.05794,-0.36726 -6.43209,-1.52353 -1.46303,-1.23106 -1.99651,-2.50186 -2.20445,-5.25123 -0.15825,-2.09251 -0.29509,-2.51506 -0.95436,-2.94703 -0.55693,-0.36492 -0.76962,-0.81064 -0.76962,-1.61287 v -1.10859 h 4.09378 4.09377 v 1.13871 c 0,0.85323 -0.20526,1.2732 -0.81875,1.67517 -0.69909,0.45806 -0.81876,0.78466 -0.81876,2.23457 0,0.93395 0.17685,1.87494 0.393,2.09109 0.24946,0.24946 1.50807,0.39301 3.4458,0.39301 2.93849,0 3.06675,-0.0307 3.42583,-0.81876 0.28952,-0.63542 0.61796,-0.81875 1.46674,-0.81875 h 1.09369 v 4.09377 4.09378 h -0.97496 c -0.67855,0 -1.13804,-0.24891 -1.51142,-0.81876 z m 4.06073,-3.27562 -0.10059,-4.09437 1.05683,6.6e-4 c 0.7655,3.3e-4 1.20472,0.2263 1.5933,0.81935 0.4623,0.70556 0.78029,0.81875 2.30007,0.81875 h 1.76359 v 2.45627 2.45627 h -1.76359 c -1.51978,0 -1.83777,0.11319 -2.30007,0.81875 -0.36948,0.56391 -0.83411,0.81876 -1.4927,0.81876 h -0.95624 l -0.1006,-4.09438 z M 55.45878,205.00294 c 0,-0.82845 0.19698,-1.19633 0.81875,-1.5291 0.72453,-0.38775 0.81876,-0.65042 0.81876,-2.28235 0,-1.01429 -0.17685,-2.02102 -0.393,-2.23717 -0.24574,-0.24574 -1.46601,-0.39301 -3.25651,-0.39301 -2.83436,0 -2.8694,0.01 -3.44388,0.98251 -0.45747,0.77444 -0.80817,0.98251 -1.65603,0.98251 h -1.07564 v -4.0556 -4.0556 l 0.8822,-0.16864 c 0.67871,-0.12974 1.08674,0.0503 1.76891,0.78058 0.86555,0.92657 0.96593,0.94922 4.20713,0.94922 2.6121,0 3.57962,0.13229 4.5355,0.62015 2.33612,1.19231 3.34385,3.10759 3.34385,6.35528 0,1.88768 0.0771,2.12521 0.81876,2.52212 0.62177,0.33277 0.81875,0.70065 0.81875,1.5291 v 1.09092 H 59.55256 55.45878 Z M 43.3412,199.54382 c -0.61543,-0.86429 -0.89394,-0.98251 -2.31481,-0.98251 h -1.61521 v -2.29251 -2.29251 h 1.61521 c 1.42087,0 1.69938,-0.11822 2.31481,-0.98251 0.50499,-0.70919 0.96673,-0.98251 1.65981,-0.98251 h 0.96021 v 4.25753 4.25753 h -0.96021 c -0.69308,0 -1.15482,-0.27332 -1.65981,-0.98251 z"
       style="fill:#f4f4f4;stroke-width:0.327502;fill-opacity:1"
       id="path628" /></g></svg>
