<?xml version="1.0" encoding="UTF-8" standalone="no"?>
<!-- Created with Inkscape (http://www.inkscape.org/) -->

<svg
   width="1920"
   height="1080"
   viewBox="0 0 507.99999 285.75"
   version="1.1"
   id="svg5"
   xml:space="preserve"
   inkscape:version="1.2.2 (732a01da63, 2022-12-09)"
   sodipodi:docname="5.svg"
   xmlns:inkscape="http://www.inkscape.org/namespaces/inkscape"
   xmlns:sodipodi="http://sodipodi.sourceforge.net/DTD/sodipodi-0.dtd"
   xmlns="http://www.w3.org/2000/svg"
   xmlns:svg="http://www.w3.org/2000/svg"><sodipodi:namedview
     id="namedview7"
     pagecolor="#ffffff"
     bordercolor="#000000"
     borderopacity="0.25"
     inkscape:showpageshadow="2"
     inkscape:pageopacity="0.0"
     inkscape:pagecheckerboard="0"
     inkscape:deskcolor="#d1d1d1"
     inkscape:document-units="mm"
     showgrid="false"
     inkscape:zoom="0.52724989"
     inkscape:cx="1171.1714"
     inkscape:cy="595.54304"
     inkscape:window-width="1920"
     inkscape:window-height="1017"
     inkscape:window-x="-8"
     inkscape:window-y="-8"
     inkscape:window-maximized="1"
     inkscape:current-layer="layer1" /><defs
     id="defs2" /><g
     inkscape:label="Слой 1"
     inkscape:groupmode="layer"
     id="layer1"><path
       d="m 49.748474,74.099029 c 0,-0.8211 0.21232,-1.24771 0.81875,-1.64506 0.68284,-0.44741 0.81876,-0.79431 0.81876,-2.08967 0,-1.54739 -0.0145,-1.56769 -3.87778,-5.42088 -3.75431,-3.74453 -3.91365,-3.86094 -5.00469,-3.65626 -0.89964,0.16877 -1.253,0.0721 -1.75208,-0.47939 -0.62376,-0.68924 -0.6186,-0.69741 2.28907,-3.61861 l 2.91424,-2.9278 0.7247,0.68082 c 0.54597,0.51291 0.68508,0.93526 0.56404,1.71245 -0.14376,0.92313 0.0656,1.25454 1.99092,3.15094 l 2.15158,2.1193 v -3.18369 -3.18368 h 2.45626 2.45627 v 8.14989 8.14988 l 0.81875,0.53647 c 0.61349,0.40197 0.81876,0.82195 0.81876,1.67518 v 1.1387 h -4.09378 -4.09377 z"
       style="fill:#f4f4f4;stroke-width:0.327502;fill-opacity:1"
       id="path656" /></g></svg>
