<?xml version="1.0" encoding="UTF-8" standalone="no"?>
<!-- Created with Inkscape (http://www.inkscape.org/) -->

<svg
   width="1920"
   height="1080"
   viewBox="0 0 507.99999 285.75"
   version="1.1"
   id="svg5"
   xml:space="preserve"
   inkscape:version="1.2.2 (732a01da63, 2022-12-09)"
   sodipodi:docname="6.svg"
   xmlns:inkscape="http://www.inkscape.org/namespaces/inkscape"
   xmlns:sodipodi="http://sodipodi.sourceforge.net/DTD/sodipodi-0.dtd"
   xmlns="http://www.w3.org/2000/svg"
   xmlns:svg="http://www.w3.org/2000/svg"><sodipodi:namedview
     id="namedview7"
     pagecolor="#ffffff"
     bordercolor="#000000"
     borderopacity="0.25"
     inkscape:showpageshadow="2"
     inkscape:pageopacity="0.0"
     inkscape:pagecheckerboard="0"
     inkscape:deskcolor="#d1d1d1"
     inkscape:document-units="mm"
     showgrid="false"
     inkscape:zoom="0.52724989"
     inkscape:cx="1171.1714"
     inkscape:cy="595.54304"
     inkscape:window-width="1920"
     inkscape:window-height="1017"
     inkscape:window-x="-8"
     inkscape:window-y="-8"
     inkscape:window-maximized="1"
     inkscape:current-layer="layer1" /><defs
     id="defs2" /><g
     inkscape:label="Слой 1"
     inkscape:groupmode="layer"
     id="layer1"><path
       d="m 149.40276,45.929526 c -0.45329,-0.691806 -0.7892,-0.818755 -2.16643,-0.818755 h -1.62996 V 42.654505 40.19824 h 1.74869 c 1.54746,0 1.79162,-0.09422 2.12174,-0.818755 0.29512,-0.647711 0.61398,-0.818755 1.52633,-0.818755 h 1.15328 v 4.093775 4.093776 h -1.10859 c -0.82111,0 -1.24771,-0.212326 -1.64506,-0.818755 z m 4.06366,-3.275021 V 38.56073 h 1.09091 c 0.82846,0 1.19634,0.196979 1.5291,0.818755 0.4337,0.810371 0.48281,0.818755 4.79658,0.818755 4.28755,0 4.3671,-0.0133 4.89485,-0.818755 0.39735,-0.606429 0.82396,-0.818755 1.64506,-0.818755 h 1.10859 v 4.093775 4.093776 h -1.10859 c -0.8211,0 -1.24771,-0.212326 -1.64506,-0.818755 -0.52778,-0.805492 -0.60712,-0.818755 -4.89763,-0.818755 -4.33408,0 -4.36347,0.0051 -4.73421,0.818755 -0.29511,0.64771 -0.61397,0.818755 -1.52632,0.818755 h -1.15328 z"
       style="fill:#f4f4f4;stroke-width:0.327502;fill-opacity:1"
       id="path679" /></g></svg>
