<?xml version="1.0" encoding="UTF-8" standalone="no"?>
<!-- Created with Inkscape (http://www.inkscape.org/) -->

<svg
   width="1920"
   height="1080"
   viewBox="0 0 507.99999 285.75"
   version="1.1"
   id="svg5"
   xml:space="preserve"
   inkscape:version="1.2.2 (732a01da63, 2022-12-09)"
   sodipodi:docname="7.svg"
   xmlns:inkscape="http://www.inkscape.org/namespaces/inkscape"
   xmlns:sodipodi="http://sodipodi.sourceforge.net/DTD/sodipodi-0.dtd"
   xmlns="http://www.w3.org/2000/svg"
   xmlns:svg="http://www.w3.org/2000/svg"><sodipodi:namedview
     id="namedview7"
     pagecolor="#ffffff"
     bordercolor="#000000"
     borderopacity="0.25"
     inkscape:showpageshadow="2"
     inkscape:pageopacity="0.0"
     inkscape:pagecheckerboard="0"
     inkscape:deskcolor="#d1d1d1"
     inkscape:document-units="mm"
     showgrid="false"
     inkscape:zoom="0.52724989"
     inkscape:cx="1171.1714"
     inkscape:cy="595.54304"
     inkscape:window-width="1920"
     inkscape:window-height="1017"
     inkscape:window-x="-8"
     inkscape:window-y="-8"
     inkscape:window-maximized="1"
     inkscape:current-layer="layer1" /><defs
     id="defs2" /><g
     inkscape:label="Слой 1"
     inkscape:groupmode="layer"
     id="layer1"><path
       d="m 109.73312,187.86113 c -0.54262,-0.6583 -0.98658,-1.3107 -0.98658,-1.44978 0,-0.13909 -1.17561,-0.25289 -2.61247,-0.25289 -2.42523,0 -2.65091,0.0587 -3.14893,0.81876 -0.36704,0.56017 -0.83487,0.81875 -1.48131,0.81875 h -0.94484 l -0.0251,-3.52064 c -0.0138,-1.93636 -0.0744,-3.77856 -0.13478,-4.09378 -0.18686,-0.97612 1.97732,-0.77524 2.64622,0.24563 0.49606,0.75709 0.72477,0.81785 3.03694,0.80679 l 2.50047,-0.012 0.9263,-1.4618 0.92629,-1.4618 h 7.00525 7.00525 l 1.07477,1.46098 1.07476,1.46099 2.48279,0.0128 c 2.31928,0.0119 2.51167,-0.0412 2.92099,-0.80598 0.33276,-0.62178 0.70064,-0.81876 1.5291,-0.81876 h 1.09091 v 4.09378 4.09378 h -1.09091 c -0.82846,0 -1.19634,-0.19698 -1.5291,-0.81876 -0.4091,-0.76441 -0.60298,-0.81808 -2.92099,-0.80863 l -2.48279,0.0101 -1.11081,1.47428 -1.11081,1.47428 -6.82704,-0.0346 -6.82704,-0.0346 -0.98658,-1.1969 z m -13.298017,-0.88391 c -0.4623,-0.70556 -0.78029,-0.81876 -2.30006,-0.81876 h -1.7636 v -2.45626 -2.45627 h 1.74592 c 1.52713,0 1.80083,-0.1026 2.1841,-0.81875 0.33277,-0.62178 0.70065,-0.81876 1.5291,-0.81876 h 1.09092 v 4.09378 4.09377 h -0.97496 c -0.67855,0 -1.13804,-0.24891 -1.51142,-0.81875 z m 39.494107,-3.27502 v -4.09378 h 1.10859 c 0.82111,0 1.24772,0.21233 1.64507,0.81876 0.45329,0.6918 0.7892,0.81875 2.16643,0.81875 h 1.62996 v 2.45627 2.45626 h -1.74869 c -1.54746,0 -1.79162,0.0942 -2.12175,0.81876 -0.29511,0.64771 -0.61397,0.81875 -1.52633,0.81875 h -1.15328 z m -24.82805,-7.61443 c 0.0861,-1.03966 0.28998,-1.32865 1.32889,-1.88313 1.03145,-0.5505 1.22739,-0.82483 1.22814,-1.71939 l 8.8e-4,-1.06438 h 3.76628 3.76627 v 1.09652 c 0,0.96248 0.16013,1.16873 1.31001,1.68725 1.19905,0.54069 1.31,0.69748 1.31,1.851 v 1.26027 h -6.40606 -6.40605 z m 4.87012,-6.41636 c -0.28955,-0.76157 -0.49144,-0.81736 -3.76534,-1.04051 -3.08423,-0.21022 -3.4594,-0.30258 -3.4594,-0.85167 0,-0.58768 0.40607,-0.61589 8.86657,-0.61589 8.26751,0 8.85921,0.0387 8.75766,0.57313 -0.0914,0.48117 -0.67049,0.61878 -3.60886,0.85766 -3.21648,0.26148 -3.50801,0.34106 -3.5995,0.9825 -0.081,0.56775 -0.35943,0.71678 -1.49237,0.79874 -1.22262,0.0884 -1.43019,0.002 -1.69876,-0.70396 z"
       style="fill:#f4f4f4;fill-opacity:1;stroke-width:0.327502"
       id="path712" /></g></svg>
