<?xml version="1.0" encoding="UTF-8" standalone="no"?>
<!-- Created with Inkscape (http://www.inkscape.org/) -->

<svg
   width="1920"
   height="1080"
   viewBox="0 0 507.99999 285.75"
   version="1.1"
   id="svg5"
   xml:space="preserve"
   inkscape:version="1.2.2 (732a01da63, 2022-12-09)"
   sodipodi:docname="8.svg"
   xmlns:inkscape="http://www.inkscape.org/namespaces/inkscape"
   xmlns:sodipodi="http://sodipodi.sourceforge.net/DTD/sodipodi-0.dtd"
   xmlns="http://www.w3.org/2000/svg"
   xmlns:svg="http://www.w3.org/2000/svg"><sodipodi:namedview
     id="namedview7"
     pagecolor="#ffffff"
     bordercolor="#000000"
     borderopacity="0.25"
     inkscape:showpageshadow="2"
     inkscape:pageopacity="0.0"
     inkscape:pagecheckerboard="0"
     inkscape:deskcolor="#d1d1d1"
     inkscape:document-units="mm"
     showgrid="false"
     inkscape:zoom="0.52724989"
     inkscape:cx="1171.1714"
     inkscape:cy="595.54304"
     inkscape:window-width="1920"
     inkscape:window-height="1017"
     inkscape:window-x="-8"
     inkscape:window-y="-8"
     inkscape:window-maximized="1"
     inkscape:current-layer="layer1" /><defs
     id="defs2" /><g
     inkscape:label="Слой 1"
     inkscape:groupmode="layer"
     id="layer1"><path
       d="m 378.55013,156.56225 c 0,-1.42087 -0.11821,-1.69938 -0.9825,-2.31481 -0.70919,-0.50499 -0.98251,-0.96672 -0.98251,-1.65981 v -0.96021 h 4.25752 4.25752 v 0.99774 c 0,0.76556 -0.22815,1.12757 -0.98043,1.55564 -0.89303,0.50815 -0.98062,0.71119 -0.98251,2.27728 l -0.002,1.71939 h -2.29251 -2.29251 z m 17.0301,0 c 0,-1.42087 -0.11821,-1.69938 -0.98251,-2.31481 -0.70919,-0.50499 -0.98251,-0.96672 -0.98251,-1.65981 v -0.96021 h 4.25753 c 0,0 3.98421,2.11503 3.27502,2.62002 -0.86429,0.61543 -0.9825,0.89394 -0.9825,2.31482 v 1.61521 h -2.29252 -2.29251 z m -18.77677,-6.46317 c -0.12009,-0.12008 -0.21834,-0.62757 -0.21834,-1.12774 0,-0.66314 0.26606,-1.06657 0.98251,-1.48979 l 0.9825,-0.58038 v -5.04955 c 0,-2.92314 0.16219,-5.59088 0.38515,-6.33505 0.51775,-1.72812 2.55069,-3.96874 4.44918,-4.90372 1.40166,-0.69029 1.98011,-0.76241 5.97323,-0.74469 3.41834,0.0152 4.6971,0.14502 5.63722,0.57243 1.86599,0.84835 3.55748,2.50824 4.40029,4.3181 0.70002,1.50323 0.76392,2.08024 0.76686,6.92413 0.003,5.27358 0.005,5.28533 0.82195,5.82071 0.61349,0.40198 -3.27502,2.81389 -3.27502,2.81389 h -4.09378 v -1.12774 c 0,-0.91134 0.19263,-1.24128 1.0038,-1.71939 l 1.00379,-0.59164 -0.10316,-5.0204 -0.10316,-5.02039 -1.22333,-1.12027 -1.22332,-1.12027 h -3.4868 c -2.93062,0 -3.65813,0.10588 -4.56087,0.66381 -1.50692,0.93133 -1.78701,2.06799 -1.78701,7.25213 0,4.53975 6.5e-4,4.54346 0.82661,4.91981 0.85791,0.39089 1.34763,1.53923 1.02025,2.39236 -0.15326,0.39939 -0.92009,0.49199 -4.07451,0.49199 -2.13714,0 -3.98396,-0.0982 -4.10404,-0.21834 z"
       style="fill:#f4f4f4;fill-opacity:1;stroke-width:0.327502"
       id="path15945" /></g></svg>
