<?xml version="1.0" encoding="UTF-8" standalone="no"?>
<!-- Created with Inkscape (http://www.inkscape.org/) -->

<svg
   width="1920"
   height="1080"
   viewBox="0 0 507.99999 285.75"
   version="1.1"
   id="svg5"
   xml:space="preserve"
   inkscape:version="1.2.2 (732a01da63, 2022-12-09)"
   sodipodi:docname="9.svg"
   xmlns:inkscape="http://www.inkscape.org/namespaces/inkscape"
   xmlns:sodipodi="http://sodipodi.sourceforge.net/DTD/sodipodi-0.dtd"
   xmlns="http://www.w3.org/2000/svg"
   xmlns:svg="http://www.w3.org/2000/svg"><sodipodi:namedview
     id="namedview7"
     pagecolor="#ffffff"
     bordercolor="#000000"
     borderopacity="0.25"
     inkscape:showpageshadow="2"
     inkscape:pageopacity="0.0"
     inkscape:pagecheckerboard="0"
     inkscape:deskcolor="#d1d1d1"
     inkscape:document-units="mm"
     showgrid="false"
     inkscape:zoom="0.52724989"
     inkscape:cx="1171.1714"
     inkscape:cy="595.54304"
     inkscape:window-width="1920"
     inkscape:window-height="1017"
     inkscape:window-x="-8"
     inkscape:window-y="-8"
     inkscape:window-maximized="1"
     inkscape:current-layer="layer1" /><defs
     id="defs2" /><g
     inkscape:label="Слой 1"
     inkscape:groupmode="layer"
     id="layer1"><path
       d="m 439.71761,61.62322 c -0.33013,-0.72453 -0.57429,-0.81875 -2.12175,-0.81875 h -1.74869 V 58.3482 55.89194 h 1.74869 c 1.54746,0 1.79162,-0.0942 2.12175,-0.81876 0.29511,-0.64771 0.61397,-0.81875 1.52632,-0.81875 h 1.15328 v 4.09377 4.09378 h -1.15328 c -0.91235,0 -1.23121,-0.17105 -1.52632,-0.81876 z m 3.98961,-3.27502 v -4.09377 h 1.15328 c 0.91235,0 1.23121,0.17104 1.52632,0.81875 0.36291,0.7965 0.46512,0.81876 3.75926,0.81876 h 3.3862 v -4.41373 c 0,-4.37067 -0.008,-4.41907 -0.83586,-4.9614 -0.63158,-0.41383 -0.81167,-0.77783 -0.73688,-1.48937 l 0.099,-0.94169 4.0119,-0.0831 4.0119,-0.0831 v 1.06615 c 0,0.77584 -0.22295,1.21223 -0.81875,1.60262 -0.80584,0.52801 -0.81876,0.60562 -0.81876,4.92008 v 4.38361 h 3.44579 c 3.3577,0 3.45533,-0.0209 3.81884,-0.81875 0.28952,-0.63542 0.61796,-0.81876 1.46674,-0.81876 h 1.09369 v 4.09378 4.09377 h -1.09369 c -0.84878,0 -1.17722,-0.18334 -1.46674,-0.81875 l -0.37304,-0.81876 h -9.28827 -9.28825 l -0.37306,0.81876 c -0.29511,0.64771 -0.61397,0.81875 -1.52632,0.81875 h -1.15328 z m 26.20016,0 v -4.09377 h 0.97496 c 0.67856,0 1.13805,0.24891 1.51142,0.81875 0.4623,0.70556 0.78029,0.81876 2.30007,0.81876 h 1.76359 v 2.45626 2.45627 h -1.76359 c -1.51978,0 -1.83777,0.11319 -2.30007,0.81875 -0.37337,0.56985 -0.83286,0.81876 -1.51142,0.81876 h -0.97496 z M 451.89477,41.4894 c 0,-0.67856 0.24891,-1.13805 0.81875,-1.51143 0.70557,-0.4623 0.81876,-0.78029 0.81876,-2.30006 v -1.7636 h 2.45627 2.45626 v 1.74592 c 0,1.52714 0.1026,1.80084 0.81876,2.18411 0.62177,0.33276 0.81875,0.70064 0.81875,1.5291 v 1.09092 h -4.09377 -4.09378 z"
       style="fill:#f4f4f4;fill-opacity:1;stroke-width:0.327502"
       id="path17062" /></g></svg>
