<?xml version="1.0" encoding="UTF-8" standalone="no"?>
<svg
   width="30"
   height="29"
   viewBox="0 0 30 29"
   fill="none"
   version="1.1"
   id="svg4"
   sodipodi:docname="header_textbox_p.svg"
   inkscape:version="1.2.2 (732a01da63, 2022-12-09)"
   xmlns:inkscape="http://www.inkscape.org/namespaces/inkscape"
   xmlns:sodipodi="http://sodipodi.sourceforge.net/DTD/sodipodi-0.dtd"
   xmlns="http://www.w3.org/2000/svg"
   xmlns:svg="http://www.w3.org/2000/svg">
  <defs
     id="defs8" />
  <sodipodi:namedview
     id="namedview6"
     pagecolor="#ffffff"
     bordercolor="#000000"
     borderopacity="0.25"
     inkscape:showpageshadow="2"
     inkscape:pageopacity="0.0"
     inkscape:pagecheckerboard="0"
     inkscape:deskcolor="#d1d1d1"
     showgrid="false"
     inkscape:zoom="14.431034"
     inkscape:cx="-3.9844683"
     inkscape:cy="16.422939"
     inkscape:window-width="1920"
     inkscape:window-height="1017"
     inkscape:window-x="-8"
     inkscape:window-y="-8"
     inkscape:window-maximized="1"
     inkscape:current-layer="svg4" />
  <path
     style="fill:#f44336;fill-opacity:1;stroke-width:0.0338324"
     d="m 12.174824,28.409288 c -0.574086,-0.103425 -0.741997,-0.200768 -0.868615,-0.503554 -0.0491,-0.117419 -0.05459,-0.26385 -0.04392,-1.172158 0.01499,-1.275937 0.06374,-1.15958 -0.583412,-1.392123 -0.4023,-0.144558 -0.467045,-0.159006 -0.572101,-0.127671 -0.0973,0.02902 -0.2363686,0.177406 -0.7784669,0.830598 -0.5705787,0.687506 -0.6841368,0.807325 -0.8380845,0.884286 -0.2854064,0.142679 -0.4427423,0.112874 -0.98311,-0.18623 -0.5996618,-0.331926 -0.7864097,-0.552889 -0.7423599,-0.878372 0.00914,-0.06758 0.1784535,-0.538819 0.3762376,-1.047191 0.1977845,-0.508373 0.3596082,-0.954264 0.3596082,-0.990867 0,-0.132308 -0.1029076,-0.258916 -0.4191352,-0.515664 C 6.7411299,23.03402 6.6113083,22.972716 6.4598236,23.016791 6.4086316,23.031681 5.985974,23.266913 5.520586,23.539518 5.055198,23.812123 4.6148851,24.051214 4.5421126,24.070832 4.3886253,24.112212 4.2213137,24.087752 4.0457632,23.998262 3.9158516,23.932042 3.3225928,23.25711 3.223464,23.062758 3.155863,22.930221 3.152074,22.683341 3.215314,22.532099 c 0.025881,-0.06189 0.3468152,-0.45133 0.7131852,-0.865416 0.3663697,-0.414087 0.6812837,-0.792716 0.6998082,-0.8414 0.052278,-0.137384 0.00933,-0.26359 -0.2202561,-0.647222 C 4.2490792,19.912415 4.1648457,19.806203 4.0736574,19.756412 L 3.951765,19.689854 2.8878819,19.888967 C 1.875032,20.078528 1.8161104,20.085872 1.6595465,20.042073 1.3764914,19.962885 1.251566,19.800082 1.0443983,19.240397 0.93392493,18.941942 0.86670474,18.706307 0.86670474,18.617508 c 0,-0.17896 0.11226244,-0.415536 0.24330156,-0.512722 0.055022,-0.04081 0.491137,-0.28725 0.9691456,-0.547651 1.083592,-0.590302 1.0294496,-0.520136 0.9044425,-1.172113 C 2.858724,15.733758 2.940183,15.785651 1.7467112,15.597081 0.61358639,15.418048 0.56498577,15.406018 0.4039039,15.264702 0.19009518,15.077131 0.15751926,14.957857 0.15667357,14.359482 c -7.0091e-4,-0.495973 0.004152,-0.535819 0.085046,-0.698014 0.0822091,-0.164836 0.24724409,-0.311144 0.40542796,-0.359424 0.0369865,-0.01129 0.50842247,-0.08995 1.04763497,-0.174805 0.5780513,-0.09096 1.0126635,-0.175411 1.0590376,-0.205771 0.1134661,-0.07429 0.1673251,-0.218242 0.2437157,-0.651421 0.059492,-0.337351 0.06195,-0.396969 0.020458,-0.49619 C 2.9589081,11.632562 2.9584383,11.63226 1.9349492,11.078603 0.96167391,10.552109 0.89955615,10.49726 0.87381113,10.141634 0.86119965,9.9674306 0.88015107,9.8929087 1.0468333,9.4610926 1.1619702,9.1628196 1.2708047,8.9370227 1.3295939,8.8744538 1.4507051,8.7455551 1.6605863,8.6476876 1.8179562,8.6467301 c 0.067108,-4.1e-4 0.5621116,0.081824 1.1000081,0.1827503 0.5378965,0.1009216 1.0186632,0.1754708 1.06837,0.1656653 C 4.1182131,8.9691334 4.1903384,8.8883042 4.4013467,8.5300674 4.6338397,8.135355 4.6662631,8.0526439 4.638324,7.9255431 4.624167,7.8611421 4.3786726,7.5594549 3.9482415,7.0775033 3.5807816,6.666062 3.2549614,6.2807237 3.2241965,6.2211972 3.1610219,6.0989602 3.150499,5.8225034 3.2037007,5.6826893 3.2471629,5.5684688 3.8489924,4.8504882 3.9785182,4.7583346 4.1350139,4.6469915 4.3630868,4.601251 4.5340118,4.646929 4.6150164,4.6685782 5.0757506,4.9228246 5.5578655,5.2119235 6.4454769,5.7441787 6.5385738,5.7838442 6.6989394,5.6980897 6.8577633,5.613162 7.3893773,5.1601001 7.4269887,5.0776204 c 0.02187,-0.047964 0.039765,-0.1309387 0.039765,-0.184396 0,-0.053459 -0.1611038,-0.5054836 -0.3580086,-1.0045056 C 6.7141977,2.8888046 6.6866765,2.7593037 6.815235,2.5076166 6.907544,2.3268975 6.944644,2.2972425 7.4177791,2.025993 8.0352099,1.6720197 8.1757565,1.6428353 8.4762075,1.8062175 c 0.1376168,0.074835 0.2892551,0.2351008 0.7762876,0.8204619 0.670057,0.8053358 0.7787899,0.9127307 0.9241099,0.9127307 0.09108,0 0.724842,-0.2181006 0.90614,-0.3118354 0.171892,-0.088871 0.180144,-0.1509315 0.171371,-1.2889359 -0.0069,-0.9050979 -5.82e-4,-1.06840299 0.04528,-1.15613108 0.06651,-0.12720616 0.215471,-0.2780654 0.336158,-0.34042351 0.09808,-0.0506775 0.989298,-0.21687663 1.162968,-0.21687663 0.160798,0 0.448912,0.15976001 0.541144,0.30006697 0.04435,0.0674659 0.216925,0.51072895 0.383506,0.98503105 0.16658,0.4743031 0.322006,0.9040066 0.345391,0.9548959 0.07993,0.1739394 0.179788,0.2095395 0.625526,0.2230005 0.477506,0.014416 0.661692,-0.02367 0.753101,-0.1557347 0.03508,-0.050687 0.205194,-0.498368 0.378027,-0.9948503 0.172834,-0.4964823 0.349944,-0.95519069 0.393579,-1.0193516 0.09289,-0.13659399 0.383605,-0.29305782 0.544503,-0.29305782 0.06099,0 0.326597,0.0378031 0.590249,0.08402 0.566071,0.0992115 0.725867,0.17556842 0.865447,0.41354668 l 0.09242,0.1575824 -0.0095,1.05575704 c -0.01064,1.1882954 -0.0069,1.2099241 0.221758,1.3083812 0.36037,0.1551227 0.774433,0.2949191 0.873524,0.2949191 0.06122,0 0.143801,-0.026627 0.183504,-0.059179 0.0397,-0.032552 0.357431,-0.4092032 0.706062,-0.8370054 0.725813,-0.8906393 0.791096,-0.9433597 1.141571,-0.9219047 0.181464,0.011108 0.253513,0.041346 0.676928,0.2841111 0.562174,0.3223204 0.664329,0.4336293 0.686054,0.7475282 0.01257,0.1817088 -0.01029,0.2552508 -0.344429,1.1077268 -0.376603,0.9608157 -0.41576,1.1259793 -0.299316,1.2625079 0.124015,0.1454059 0.689326,0.5760846 0.783219,0.5966903 0.13762,0.0302 0.234487,-0.016417 1.153108,-0.5549868 0.443646,-0.2600999 0.874414,-0.4899641 0.957262,-0.510808 0.16618,-0.041815 0.374092,-0.0042 0.525769,0.095098 0.108177,0.070824 0.701027,0.7562181 0.7757,0.8967896 0.08463,0.159313 0.07791,0.4517061 -0.01397,0.6072866 -0.04068,0.068891 -0.35266,0.439106 -0.693287,0.8226981 -0.340627,0.3835911 -0.637821,0.7301756 -0.660431,0.7701866 -0.07917,0.1401098 -0.04818,0.269518 0.14728,0.6148989 0.226657,0.4005094 0.326096,0.5154405 0.469161,0.542258 0.06587,0.012347 0.491486,-0.053225 1.114736,-0.1717345 1.085528,-0.2064131 1.146745,-0.2092642 1.39547,-0.064996 0.179693,0.1042276 0.241067,0.2069725 0.43088,0.7213285 0.188689,0.5113082 0.205812,0.5962278 0.156852,0.7779028 -0.06985,0.25918 -0.207289,0.364628 -1.108324,0.850331 -0.871736,0.469909 -1.058781,0.603767 -1.058781,0.757717 0,0.169163 0.140549,0.881125 0.18872,0.955974 0.02651,0.0412 0.07951,0.09164 0.117775,0.112104 0.03826,0.02046 0.532512,0.110598 1.098329,0.200305 1.104748,0.17515 1.187746,0.200921 1.349708,0.419082 0.04357,0.05869 0.09656,0.158434 0.117738,0.22166 0.04705,0.140399 0.05086,0.989205 0.0052,1.153233 -0.04419,0.158691 -0.206999,0.349866 -0.359543,0.422193 -0.06961,0.03301 -0.566911,0.129748 -1.128453,0.219525 -0.552199,0.08828 -1.037259,0.1783 -1.077914,0.20004 -0.112551,0.06018 -0.160428,0.185709 -0.242804,0.63659 -0.112486,0.61568 -0.164084,0.552867 0.952441,1.159438 0.496493,0.269729 0.933997,0.519059 0.972229,0.554067 0.10748,0.09841 0.206609,0.331846 0.206609,0.486529 0,0.137909 -0.230781,0.812818 -0.373554,1.092446 -0.0781,0.152962 -0.306272,0.316077 -0.490429,0.350596 -0.07981,0.01496 -0.439108,-0.03916 -1.121834,-0.168983 -1.020385,-0.194025 -1.179187,-0.20629 -1.296586,-0.100133 -0.08593,0.0777 -0.473371,0.747145 -0.49489,0.855097 -0.01014,0.05084 -0.0034,0.130496 0.01492,0.176996 0.01835,0.0465 0.324965,0.411739 0.681382,0.811642 0.356418,0.399902 0.677597,0.783557 0.713733,0.852567 0.08394,0.160305 0.08527,0.413703 0.003,0.574917 -0.08468,0.165951 -0.63663,0.808768 -0.780987,0.909554 -0.09753,0.06809 -0.156763,0.08098 -0.37231,0.08098 h -0.256328 l -0.882818,-0.515446 c -0.48555,-0.283496 -0.927246,-0.524292 -0.981546,-0.535101 -0.145745,-0.02901 -0.236432,0.01819 -0.578669,0.301222 -0.352606,0.291604 -0.416989,0.369815 -0.416989,0.506561 0,0.05351 0.158187,0.50427 0.351527,1.001701 0.19334,0.497431 0.362428,0.95401 0.375751,1.01462 0.03267,0.14859 -0.03485,0.373524 -0.156278,0.520723 -0.143816,0.174328 -0.959792,0.628138 -1.17528,0.653638 -0.193613,0.02291 -0.371991,-0.02792 -0.51249,-0.146045 -0.05481,-0.04608 -0.390323,-0.432306 -0.745579,-0.858272 -0.544192,-0.652506 -0.663088,-0.7777 -0.754919,-0.794914 -0.08116,-0.01521 -0.22522,0.0212 -0.563987,0.142537 -0.399726,0.143174 -0.464526,0.177149 -0.53351,0.279723 l -0.07852,0.116756 0.02343,1.00594 c 0.02117,0.908414 0.01775,1.020833 -0.03526,1.159531 -0.06886,0.180153 -0.267874,0.364134 -0.450818,0.41676 -0.293407,0.0844 -0.994006,0.184304 -1.139555,0.162496 -0.161447,-0.02419 -0.390103,-0.169529 -0.478294,-0.304015 -0.03005,-0.04583 -0.203479,-0.502769 -0.385397,-1.015432 -0.181919,-0.512662 -0.358165,-0.96237 -0.39166,-0.999352 -0.09057,-0.09999 -0.26338,-0.134856 -0.669537,-0.135066 -0.381185,-2.02e-4 -0.535784,0.03756 -0.637928,0.155781 -0.03034,0.03512 -0.204418,0.489961 -0.386838,1.010765 -0.312201,0.891322 -0.340171,0.955236 -0.476419,1.08864 -0.241128,0.236099 -0.385138,0.252619 -1.092018,0.12527 z m 3.382915,-4.784092 c 1.932598,-0.153508 3.726868,-0.860092 5.25637,-2.06996 0.40864,-0.323242 1.133971,-1.043347 1.455299,-1.444811 0.632187,-0.789849 1.179203,-1.762858 1.511486,-2.688563 0.147203,-0.410093 0.15224,-0.689912 0.01781,-0.989223 -0.108625,-0.241849 -0.314689,-0.45067 -0.553577,-0.560981 L 23.086871,15.79858 H 19.533 15.979126 l -0.193634,0.09501 c -0.110781,0.05436 -0.253591,0.162884 -0.333757,0.253639 -0.136847,0.15492 -3.267854,5.421176 -3.441879,5.78913 -0.123055,0.260187 -0.12397,0.615661 -0.0022,0.879802 0.101304,0.21986 0.3134,0.441289 0.517034,0.539785 0.220853,0.106824 0.874905,0.220535 1.626794,0.282827 0.318545,0.02639 0.984062,0.01997 1.406322,-0.01358 z M 9.1196025,20.820887 c 0.120459,-0.06416 0.2628028,-0.174418 0.324913,-0.251682 0.1660213,-0.20653 3.3986645,-5.707299 3.4603965,-5.888321 0.07327,-0.214855 0.04753,-0.590733 -0.05402,-0.788704 -0.04171,-0.08132 -0.799218,-1.390086 -1.683357,-2.908382 C 10.006689,8.99032 9.5169275,8.1791414 9.4049602,8.0644865 9.0334171,7.6840237 8.4032272,7.6294058 7.9533446,7.9386771 7.583648,8.1928249 6.7809498,9.2692785 6.3289302,10.117089 c -0.7529268,1.412194 -1.1347474,3.178587 -1.0304385,4.767053 0.1362161,2.07437 0.8739898,3.884365 2.2315214,5.474637 0.4100629,0.480366 0.6452441,0.605379 1.1044408,0.587077 0.2307862,-0.0092 0.3024288,-0.02765 0.4851486,-0.124969 z M 23.245123,12.850939 c 0.396643,-0.18316 0.649157,-0.576636 0.647521,-1.008991 -7.17e-4,-0.189907 -0.02613,-0.303875 -0.1282,-0.575033 C 23.255432,9.9147258 22.581998,8.8646101 21.58304,7.8653529 19.946338,6.2281624 17.850355,5.2745666 15.48835,5.0924908 c -0.847131,-0.065299 -1.993591,0.010991 -2.639047,0.1756074 -0.569582,0.1452703 -0.881415,0.531569 -0.880647,1.0909463 2.36e-4,0.1812042 0.01994,0.2828501 0.07941,0.410024 0.159314,0.3406314 3.313234,5.7188045 3.41739,5.8274495 0.134834,0.140647 0.291941,0.238798 0.473865,0.296043 0.113574,0.03573 0.829456,0.04319 3.644441,0.03797 l 3.503102,-0.0065 z"
     id="path353"
     inkscape:transform-center-x="-0.067682684"
     inkscape:transform-center-y="1.6232855" />
</svg>
