<?xml version="1.0" encoding="UTF-8" standalone="no"?>
<!-- Created with Inkscape (http://www.inkscape.org/) -->

<svg
   width="210mm"
   height="70mm"
   viewBox="0 0 210 70"
   version="1.1"
   id="svg5"
   xml:space="preserve"
   inkscape:version="1.2.2 (732a01da63, 2022-12-09)"
   sodipodi:docname="logotest1.svg"
   xmlns:inkscape="http://www.inkscape.org/namespaces/inkscape"
   xmlns:sodipodi="http://sodipodi.sourceforge.net/DTD/sodipodi-0.dtd"
   xmlns="http://www.w3.org/2000/svg"
   xmlns:svg="http://www.w3.org/2000/svg"><sodipodi:namedview
     id="namedview7"
     pagecolor="#ffffff"
     bordercolor="#000000"
     borderopacity="0.25"
     inkscape:showpageshadow="2"
     inkscape:pageopacity="0.0"
     inkscape:pagecheckerboard="0"
     inkscape:deskcolor="#d1d1d1"
     inkscape:document-units="mm"
     showgrid="false"
     showguides="true"
     inkscape:zoom="4.2179991"
     inkscape:cx="374.46665"
     inkscape:cy="154.33858"
     inkscape:window-width="1920"
     inkscape:window-height="1017"
     inkscape:window-x="-8"
     inkscape:window-y="-8"
     inkscape:window-maximized="1"
     inkscape:current-layer="layer1" /><defs
     id="defs2" /><g
     inkscape:label="Слой 1"
     inkscape:groupmode="layer"
     id="layer1"><path
       style="fill:#f44336;stroke:#f44336;stroke-width:0.0913939;stroke-opacity:1"
       d="m 35.570092,59.10146 c -1.518467,-0.398814 -6.489843,-2.403118 -8.682468,-3.500505 -4.899635,-2.452205 -8.769876,-5.725838 -10.213381,-8.638961 -0.37529,-0.757362 -0.38837,-0.813233 -0.38837,-1.658897 0,-0.837769 0.01602,-0.908309 0.375367,-1.651991 0.206451,-0.42727 0.57569,-1.044177 0.82053,-1.370912 0.706128,-0.942317 4.562296,-4.768922 5.247408,-5.207178 l 0.594063,-0.380018 0.05493,0.714374 c 0.140418,1.826387 1.101072,3.585484 2.463208,4.510492 0.731305,0.496616 0.817763,0.644328 0.817763,1.397036 0,0.386771 0.05624,0.746982 0.146237,0.936626 0.407417,0.858574 4.787222,3.513231 6.899309,4.181769 1.507917,0.477294 2.262606,0.533142 3.304192,0.244508 0.864283,-0.239512 1.289292,-0.230529 2.445479,0.05165 1.883844,0.459805 4.207682,0.622545 5.803546,0.406433 0.697942,-0.09452 5.104069,-1.139872 5.620755,-1.333531 0.276943,-0.103803 0.111325,-0.112904 -1.233825,-0.06782 -1.838447,0.06163 -4.088642,-0.07991 -5.346506,-0.336257 -1.627683,-0.331696 -3.266717,-1.004465 -3.797906,-1.558902 l -0.25348,-0.264579 0.01818,-1.852943 c 0.04126,-4.206379 0.789776,-10.575826 1.576404,-13.41434 0.739436,-2.668218 1.278506,-3.839364 2.368077,-5.144734 3.403249,-4.077289 8.862618,-6.695077 16.128383,-7.73362 1.870027,-0.267295 3.305918,-0.382614 5.638135,-0.452807 1.140564,-0.03433 2.09208,-0.08201 2.114479,-0.105966 0.0224,-0.02396 0.06858,-0.212305 0.102627,-0.418563 l 0.0619,-0.375014 -0.485587,-0.05832 c -0.777531,-0.09338 -7.337426,-0.06878 -8.629266,0.03236 -10.322962,0.808179 -17.706667,4.890005 -20.152883,11.140824 -0.895246,2.28762 -1.7739,7.040012 -2.223593,12.026783 -0.116487,1.29176 -0.189318,2.510437 -0.38335,6.414635 l -0.0508,1.022365 -1.019536,-0.364618 C 34.034006,45.834468 32.911524,45.357449 32.142805,44.944845 30.974336,44.317688 29.46737,43.32504 29.148676,42.97261 l -0.324266,-0.358601 0.05899,-2.06335 c 0.117244,-4.100818 0.759794,-8.669293 1.658465,-11.791511 1.190708,-4.136847 3.1831,-7.450183 5.342891,-8.885185 1.270586,-0.844202 4.324931,-2.242138 6.986846,-3.197797 3.160414,-1.134623 10.109431,-3.002444 11.170259,-3.002444 0.17038,0 0.309785,-0.04113 0.309785,-0.09139 0,-0.214543 -2.426424,0.0099 -4.341236,0.401457 -5.151773,1.053642 -8.827947,2.250207 -12.382272,4.030334 -4.323747,2.165482 -6.289476,4.49601 -7.855041,9.312767 -0.799474,2.459734 -1.91286,7.814747 -2.068635,9.94944 -0.03576,0.490102 -0.09639,0.891094 -0.13473,0.891094 -0.169593,0 -1.05597,-1.102363 -1.293252,-1.608379 -0.54546,-1.163231 -0.543354,-1.836146 0.01523,-4.886615 0.201353,-1.099606 0.424037,-2.131409 0.670337,-3.099922 1.325735,-5.213123 3.335679,-8.592601 6.386133,-10.84241 3.601586,-2.656287 8.150066,-4.473222 13.326347,-5.323333 2.629853,-0.431907 3.671728,-0.510956 6.763186,-0.513136 4.320377,-0.0031 6.31788,0.295142 10.693146,1.596277 4.836569,1.43832 6.649861,2.377089 8.591073,4.44773 2.536968,2.706115 4.361825,7.013101 4.971547,11.733735 0.200251,1.550397 0.445648,5.100708 0.38409,5.556867 -0.168279,1.246988 -1.373937,2.448515 -4.141497,4.127314 -0.577182,0.350118 -1.059626,0.713502 -1.174864,0.884922 -0.170722,0.253962 -0.371176,1.098505 -0.281915,1.187762 0.04281,0.04284 3.030434,-1.527338 3.898415,-2.048804 1.002314,-0.602173 1.803761,-1.270111 2.247902,-1.873433 0.406907,-0.552744 0.768115,-1.379712 0.768115,-1.75856 0,-0.448415 0.171331,-0.301815 0.398567,0.341041 0.41114,1.163105 0.442655,1.361803 0.490081,3.089942 0.04473,1.628947 0.03832,1.712595 -0.16006,2.102065 -0.603496,1.184771 -3.371415,3.359531 -6.852013,5.383652 -2.056791,1.196113 -4.947776,2.752495 -6.118089,3.293709 -2.843793,1.315115 -7.908082,3.364135 -11.249873,4.551719 -6.019889,2.139304 -12.730694,3.924371 -17.224822,4.581797 -1.556805,0.227739 -2.269859,0.230048 -3.107408,0.01 z M 19.565716,48.500658 c -0.670781,-1.928838 -0.415149,-3.962427 0.794,-6.316394 0.252299,-0.491181 0.70727,-1.236035 1.011043,-1.655235 0.596591,-0.823284 0.952777,-1.447641 0.825856,-1.447641 -0.04361,0 -0.388034,0.263423 -0.76537,0.585382 -1.192514,1.017509 -2.946109,3.275447 -3.572711,4.600244 -0.399896,0.845477 -0.401756,1.559201 -0.0063,2.403002 0.269909,0.575863 1.689541,2.464757 1.852433,2.464757 0.04484,0 -0.0177,-0.285356 -0.138985,-0.634115 z m 23.725312,-8.271892 c 0.266346,-4.188633 1.265238,-7.694784 3.031706,-10.641405 2.00276,-3.340774 5.27882,-6.243247 8.06155,-7.142257 0.631423,-0.203989 0.826883,-0.407384 0.310089,-0.322668 -1.220369,0.200048 -1.586337,0.281796 -2.353408,0.525684 -1.850106,0.588236 -3.481732,1.619207 -4.857865,3.069522 -2.118185,2.232368 -3.490455,5.404292 -4.140647,9.570877 -0.172313,1.104214 -0.387736,6.102285 -0.279683,6.489005 0.100155,0.358477 0.112158,0.277073 0.228258,-1.548758 z m 32.895794,-6.155611 c 0.171487,-0.08556 0.393136,-0.265571 0.492551,-0.400039 0.178269,-0.24112 0.178582,-0.266305 0.02274,-1.827889 -0.18,-1.803634 -0.250342,-2.24105 -0.557077,-3.464129 -0.546624,-2.179617 -1.702112,-4.768578 -2.852153,-6.390465 -0.762145,-1.074846 -2.520985,-2.86954 -3.304894,-3.372265 -0.972378,-0.623593 -1.129314,-0.636862 -4.531924,-0.383185 -1.637984,0.122118 -2.038022,0.279999 -1.043671,0.411905 1.009823,0.133959 2.923069,1.010077 4.379566,2.005505 1.08747,0.743221 2.680943,2.395642 3.493653,3.622901 0.734149,1.108624 1.43144,2.434033 1.896679,3.605201 0.640512,1.612401 1.316436,4.290887 1.43411,5.682963 0.03385,0.400401 0.09787,0.672045 0.157792,0.669437 0.05545,-0.0024 0.241141,-0.07438 0.412628,-0.15994 z"
       id="path974"
       sodipodi:nodetypes="ssssssscsssssssssssscssssssscssssscssscsssssssssssssssssssssssssssssssssssssssssssssssssssssssssssssssssssss" /><text
       xml:space="preserve"
       style="font-style:normal;font-variant:normal;font-weight:normal;font-stretch:normal;font-size:38.1px;font-family:Broadway;-inkscape-font-specification:Broadway;fill:#ffffff;stroke:#f44336;stroke-width:0.264583;stroke-opacity:0"
       x="89.134781"
       y="46.526024"
       id="text1133"><tspan
         sodipodi:role="line"
         id="tspan1131"
         style="font-style:normal;font-variant:normal;font-weight:normal;font-stretch:normal;font-size:38.1px;font-family:'Palatino Linotype';-inkscape-font-specification:'Palatino Linotype';fill:#ffffff;stroke-width:0.264583;stroke:#f44336;stroke-opacity:0"
         x="89.134781"
         y="46.526024">КСМУ</tspan></text><path
       style="fill:#f44336;stroke:#f44336;stroke-width:0.964399;stroke-dasharray:none;stroke-opacity:1"
       d="M 85.49195,6.431943 85.14242,61.005885"
       id="path1189"
       sodipodi:nodetypes="cc" /></g></svg>
